<svg xmlns="http://www.w3.org/2000/svg" width="54.25" height="54.25" viewBox="0 0 54.25 54.25">
  <path id="Dribbble" d="M10.923-26.616a16.6,16.6,0,0,1,9.167-11.589,106.819,106.819,0,0,1,6.139,9.566A61.688,61.688,0,0,1,10.923-26.616ZM38.1-35.6c-.3.424-2.785,3.766-8.67,5.982a89.072,89.072,0,0,0-6.176-9.688A16.49,16.49,0,0,1,38.1-35.6ZM16.965-10.172c1.732-3.536,6.418-8.089,13.09-10.366A68.321,68.321,0,0,1,33.591-7.992a16.518,16.518,0,0,1-16.626-2.18Zm11.964-13.1A25.669,25.669,0,0,0,14.822-12.158a16.519,16.519,0,0,1-4.25-11.068c0-.17.012-.339.012-.509a60.6,60.6,0,0,0,17-2.349c.472.932.932,1.865,1.344,2.809ZM33.155-21.3a24.146,24.146,0,0,1,10.305.7,16.567,16.567,0,0,1-7.1,11.092A70.764,70.764,0,0,0,33.155-21.3ZM30.7-27.161c6.115-2.507,8.888-6.055,9.239-6.527a16.391,16.391,0,0,1,3.742,10.305,38.569,38.569,0,0,0-11.528-.533C31.7-25.006,31.279-25.975,30.7-27.161Zm23.553-17.4V-1.937a5.814,5.814,0,0,1-5.812,5.813H5.813A5.814,5.814,0,0,1,0-1.937V-44.562a5.814,5.814,0,0,1,5.813-5.812H48.438A5.814,5.814,0,0,1,54.25-44.562ZM46.5-23.25A19.4,19.4,0,0,0,27.125-42.625,19.4,19.4,0,0,0,7.75-23.25,19.4,19.4,0,0,0,27.125-3.875,19.4,19.4,0,0,0,46.5-23.25Z" transform="translate(0 50.375)" fill="#3389ff"/>
</svg>
