<svg xmlns="http://www.w3.org/2000/svg" width="54.25" height="54.25" viewBox="0 0 54.25 54.25">
  <path id="Instagram" d="M27.125-29.709a6.459,6.459,0,0,0-5.59,9.691,6.459,6.459,0,0,0,11.188,0,6.459,6.459,0,0,0,.864-3.227A6.464,6.464,0,0,0,27.125-29.709Zm15.1-4.965a6.539,6.539,0,0,0-3.682-3.682c-2.543-1-8.6-.779-11.419-.779s-8.87-.234-11.42.779a6.539,6.539,0,0,0-3.682,3.682c-1,2.543-.779,8.6-.779,11.423s-.224,8.873.783,11.424a6.539,6.539,0,0,0,3.682,3.682c2.543,1,8.6.779,11.42.779S36-7.132,38.549-8.145a6.539,6.539,0,0,0,3.682-3.682c1.011-2.543.779-8.6.779-11.423s.233-8.871-.779-11.423ZM27.125-13.32a9.93,9.93,0,0,1-8.6-14.895,9.93,9.93,0,0,1,17.2,0,9.93,9.93,0,0,1,1.33,4.965A9.918,9.918,0,0,1,27.125-13.32ZM37.464-31.279a2.318,2.318,0,0,1-2.009-3.476,2.318,2.318,0,0,1,4.014,0,2.318,2.318,0,0,1,.311,1.16,2.313,2.313,0,0,1-2.312,2.323Zm10.974-19.1H5.813A5.812,5.812,0,0,0,0-44.562V-1.937A5.812,5.812,0,0,0,5.813,3.875H48.438A5.812,5.812,0,0,0,54.25-1.937V-44.562A5.812,5.812,0,0,0,48.438-50.375ZM46.364-15.258c-.156,3.1-.865,5.854-3.13,8.113s-5.013,2.983-8.113,3.13c-3.2.18-12.786.18-15.984,0-3.1-.156-5.844-.866-8.113-3.13s-2.983-5.016-3.13-8.113c-.18-3.2-.18-12.789,0-15.984.156-3.1.856-5.854,3.13-8.113s5.022-2.974,8.113-3.122c3.2-.18,12.786-.18,15.984,0,3.1.156,5.852.866,8.113,3.13s2.983,5.016,3.13,8.119C46.545-28.04,46.545-18.46,46.364-15.258Z" transform="translate(0 50.375)" fill="#3389ff"/>
</svg>
