<svg xmlns="http://www.w3.org/2000/svg" width="97.28" height="38.4" viewBox="0 0 97.28 38.4">
  <path id="Logo" d="M24-26.6a1.355,1.355,0,0,1,1.02.32,1.561,1.561,0,0,1,.3,1.08v5.72a5.518,5.518,0,0,1-1.08,3.74,4.209,4.209,0,0,1-3.32,1.22H16a1.494,1.494,0,0,1-1.08-.32,1.494,1.494,0,0,1-.32-1.08V-23.8q0-.88-.68-.88a.843.843,0,0,0-.72.32v11.04h7.6q.48,0,.48.44v1.04q0,.4-.48.4H13.2V-1.4a1.561,1.561,0,0,1-.3,1.08A1.355,1.355,0,0,1,11.88,0H3.8A1.355,1.355,0,0,1,2.78-.32a1.561,1.561,0,0,1-.3-1.08V-22.04a4.825,4.825,0,0,0-.16-1.46,2.116,2.116,0,0,0-.56-.84A10.95,10.95,0,0,0,.4-25.36a.393.393,0,0,1-.2-.36v-.48q0-.4.48-.4Zm3.76,2.76a4.593,4.593,0,0,0-.4-2.14,3.839,3.839,0,0,0-1.48-1.38,1.013,1.013,0,0,1-.34-.26.5.5,0,0,1-.06-.26v-.48q0-.4.48-.4H36.52a1.481,1.481,0,0,1,1.06.3,1.347,1.347,0,0,1,.3.98V-6.04a2.345,2.345,0,0,0,.12.92.414.414,0,0,0,.4.24.51.51,0,0,0,.5-.28,5.558,5.558,0,0,0,.3-1.28,3.051,3.051,0,0,1,.16-.82.337.337,0,0,1,.32-.14h.68a.354.354,0,0,1,.34.28,3.192,3.192,0,0,1,.1.96,6.657,6.657,0,0,1-1.72,4.92A6.657,6.657,0,0,1,34.16.48a6.242,6.242,0,0,1-4.74-1.74,6.934,6.934,0,0,1-1.66-4.98Zm14.04,7a3.08,3.08,0,0,0-.66-1.12,6.5,6.5,0,0,0-1.26-.96q-.4-.24-.4-.52v-.48q0-.4.48-.4H46.2a14.111,14.111,0,0,1,4.02.42,3.893,3.893,0,0,1,2.04,1.46,12.01,12.01,0,0,1,1.42,3.08l3.84,11.6a.655.655,0,0,0,.48.2q.6,0,.6-.68a4.7,4.7,0,0,0-.32-1.32l-3.6-11a7.163,7.163,0,0,0-.92-2.08q-.36-.44-.46-.58a.57.57,0,0,1-.1-.34v-.36q0-.4.48-.4H65q1.44,0,1.44,1.04,0,.96-2.04,6.56T58.84,1.52a24.474,24.474,0,0,1-2.52,4.9A7.54,7.54,0,0,1,53.58,8.9a7.917,7.917,0,0,1-3.54.74,7.957,7.957,0,0,1-4.78-1.32,4.1,4.1,0,0,1-1.82-3.48A3.679,3.679,0,0,1,44.92,1.8,6.043,6.043,0,0,1,48.76.64a5.8,5.8,0,0,1,3.6,1.06,3.287,3.287,0,0,1,1.4,2.74,2.408,2.408,0,0,1-.86,1.98,3.738,3.738,0,0,1-2.42.7.794.794,0,0,0-.08.36q0,.56.92.56a3.493,3.493,0,0,0,2.6-1.06,3.644,3.644,0,0,0,1.04-2.66,4.037,4.037,0,0,0-1.32-3.1A7.426,7.426,0,0,0,49.8-.44a4.017,4.017,0,0,1-1.88-.64A4.644,4.644,0,0,1,47-2.84ZM73.56-20.4a.978.978,0,0,0-.24-.72,3.586,3.586,0,0,1-2.56,1.08,3.2,3.2,0,0,1-2.42-.98,3.517,3.517,0,0,1-.94-2.54,3.447,3.447,0,0,1,1.14-2.7,4.359,4.359,0,0,1,3.02-1.02,4.1,4.1,0,0,1,3.12,1.22,4.535,4.535,0,0,1,1.16,3.26,7.638,7.638,0,0,1-.34,2.44,5.76,5.76,0,0,1-1.14,1.92,6.14,6.14,0,0,1-2.02,1.38,5.787,5.787,0,0,1-2.38.62.391.391,0,0,1-.4-.36l-.04-.16q-.04-.16-.06-.28a1.258,1.258,0,0,1-.02-.2q0-.36.56-.48a7.337,7.337,0,0,0,2.58-1.04A1.85,1.85,0,0,0,73.56-20.4Zm6.64.08q3.44,0,4.68,2.04a7.51,7.51,0,0,1,2.6-1.9,8.331,8.331,0,0,1,3.32-.62,7.147,7.147,0,0,1,4.8,1.6,5.121,5.121,0,0,1,1.88,4.08,4.238,4.238,0,0,1-1.52,3.38,5.819,5.819,0,0,1-3.92,1.3,5.988,5.988,0,0,1-3.86-1.2,3.732,3.732,0,0,1-1.5-3.04,3.334,3.334,0,0,1,1.08-2.56,3.9,3.9,0,0,1,2.76-1,.772.772,0,0,0,.12-.4q0-.56-.84-.56a4.064,4.064,0,0,0-3.04,1.34,4.5,4.5,0,0,0-1.28,3.22,4.624,4.624,0,0,0,.9,2.82,6.094,6.094,0,0,0,2.58,1.94,1.542,1.542,0,0,1,.74.54,2.1,2.1,0,0,1,.18,1.02v7.04Q89.88,0,88.52,0H80.4a1.114,1.114,0,0,1-1.24-1.28V-15.4a4.593,4.593,0,0,0-.4-2.14,3.839,3.839,0,0,0-1.48-1.38,1.013,1.013,0,0,1-.34-.26.5.5,0,0,1-.06-.26v-.48q0-.4.48-.4Z" transform="translate(-0.2 28.76)" fill="#e3f4ff"/>
</svg>
