<svg xmlns="http://www.w3.org/2000/svg" width="54.25" height="54.25" viewBox="0 0 54.25 54.25">
  <path id="Twitter" d="M48.438-50.375H5.813A5.814,5.814,0,0,0,0-44.562V-1.937A5.814,5.814,0,0,0,5.813,3.875H48.438A5.814,5.814,0,0,0,54.25-1.937V-44.562A5.814,5.814,0,0,0,48.438-50.375Zm-5.921,19.23c.024.339.024.69.024,1.029,0,10.5-7.992,22.6-22.6,22.6A22.492,22.492,0,0,1,7.75-11.08a16.731,16.731,0,0,0,1.913.1,15.923,15.923,0,0,0,9.857-3.391,7.952,7.952,0,0,1-7.423-5.51,8.56,8.56,0,0,0,3.584-.145,7.943,7.943,0,0,1-6.357-7.8v-.1a7.937,7.937,0,0,0,3.584,1.005,7.925,7.925,0,0,1-3.536-6.612,7.843,7.843,0,0,1,1.078-4.008,22.551,22.551,0,0,0,16.372,8.307,7.952,7.952,0,0,1,7.75-9.76,7.913,7.913,0,0,1,5.8,2.507A15.563,15.563,0,0,0,45.41-38.4a7.921,7.921,0,0,1-3.487,4.371A15.8,15.8,0,0,0,46.5-35.263a16.717,16.717,0,0,1-3.984,4.117Z" transform="translate(0 50.375)" fill="#3389ff"/>
</svg>
